<?xml version="1.0" encoding="utf-8" ?>
<svg baseProfile="full" height="1200" version="1.1" width="1416" xmlns="http://www.w3.org/2000/svg" xmlns:ev="http://www.w3.org/2001/xml-events" xmlns:xlink="http://www.w3.org/1999/xlink"><defs /><rect fill="#ceecb2" height="1203.14" width="153.14" x="0" y="0" /><rect fill="#909092" height="53.14" width="19.14" x="150" y="0" /><rect fill="#a5a5a7" height="8.14" width="19.14" x="150" y="50.0" /><rect fill="#909092" height="103.14" width="19.14" x="150" y="55.0" /><rect fill="#a5a5a7" height="8.14" width="19.14" x="150" y="155.0" /><rect fill="#909092" height="103.14" width="19.14" x="150" y="160.0" /><rect fill="#a5a5a7" height="8.14" width="19.14" x="150" y="260.0" /><rect fill="#909092" height="103.14" width="19.14" x="150" y="265.0" /><rect fill="#a5a5a7" height="8.14" width="19.14" x="150" y="365.0" /><rect fill="#909092" height="103.14" width="19.14" x="150" y="370.0" /><rect fill="#a5a5a7" height="8.14" width="19.14" x="150" y="470.0" /><rect fill="#909092" height="103.14" width="19.14" x="150" y="475.0" /><rect fill="#a5a5a7" height="8.14" width="19.14" x="150" y="575.0" /><rect fill="#909092" height="103.14" width="19.14" x="150" y="580.0" /><rect fill="#a5a5a7" height="8.14" width="19.14" x="150" y="680.0" /><rect fill="#909092" height="103.14" width="19.14" x="150" y="685.0" /><rect fill="#a5a5a7" height="8.14" width="19.14" x="150" y="785.0" /><rect fill="#909092" height="103.14" width="19.14" x="150" y="790.0" /><rect fill="#a5a5a7" height="8.14" width="19.14" x="150" y="890.0" /><rect fill="#909092" height="103.14" width="19.14" x="150" y="895.0" /><rect fill="#a5a5a7" height="8.14" width="19.14" x="150" y="995.0" /><rect fill="#909092" height="103.14" width="19.14" x="150" y="1000.0" /><rect fill="#a5a5a7" height="8.14" width="19.14" x="150" y="1100.0" /><rect fill="#909092" height="103.14" width="19.14" x="150" y="1105.0" /><rect fill="#68676e" height="1203.14" width="27.14" x="166" y="0" /><rect fill="#dce0df" height="1203.14" width="15.14" x="190" y="0" /><rect fill="#68676e" height="1203.14" width="303.14" x="202" y="0" /><rect fill="#dce0df" height="103.14" width="15.14" x="502" y="0" /><rect fill="#68676e" height="403.14" width="15.14" x="502" y="100.0" /><rect fill="#dce0df" height="203.14" width="15.14" x="502" y="500.0" /><rect fill="#68676e" height="403.14" width="15.14" x="502" y="700.0" /><rect fill="#dce0df" height="203.14" width="15.14" x="502" y="1100.0" /><rect fill="#68676e" height="1203.14" width="303.14" x="514" y="0" /><rect fill="#68676e" height="1203.14" width="27.14" x="814" y="0" /><rect fill="#dce0df" height="1203.14" width="15.14" x="838" y="0" /><rect fill="#909092" height="53.14" width="19.14" x="850" y="0" /><rect fill="#a5a5a7" height="8.14" width="19.14" x="850" y="50.0" /><rect fill="#909092" height="103.14" width="19.14" x="850" y="55.0" /><rect fill="#a5a5a7" height="8.14" width="19.14" x="850" y="155.0" /><rect fill="#909092" height="103.14" width="19.14" x="850" y="160.0" /><rect fill="#a5a5a7" height="8.14" width="19.14" x="850" y="260.0" /><rect fill="#909092" height="103.14" width="19.14" x="850" y="265.0" /><rect fill="#a5a5a7" height="8.14" width="19.14" x="850" y="365.0" /><rect fill="#909092" height="103.14" width="19.14" x="850" y="370.0" /><rect fill="#a5a5a7" height="8.14" width="19.14" x="850" y="470.0" /><rect fill="#909092" height="103.14" width="19.14" x="850" y="475.0" /><rect fill="#a5a5a7" height="8.14" width="19.14" x="850" y="575.0" /><rect fill="#909092" height="103.14" width="19.14" x="850" y="580.0" /><rect fill="#a5a5a7" height="8.14" width="19.14" x="850" y="680.0" /><rect fill="#909092" height="103.14" width="19.14" x="850" y="685.0" /><rect fill="#a5a5a7" height="8.14" width="19.14" x="850" y="785.0" /><rect fill="#909092" height="103.14" width="19.14" x="850" y="790.0" /><rect fill="#a5a5a7" height="8.14" width="19.14" x="850" y="890.0" /><rect fill="#909092" height="103.14" width="19.14" x="850" y="895.0" /><rect fill="#a5a5a7" height="8.14" width="19.14" x="850" y="995.0" /><rect fill="#909092" height="103.14" width="19.14" x="850" y="1000.0" /><rect fill="#a5a5a7" height="8.14" width="19.14" x="850" y="1100.0" /><rect fill="#909092" height="103.14" width="19.14" x="850" y="1105.0" /><rect fill="#ceecb2" height="1203.14" width="153.14" x="866" y="0" /><rect fill="#aca59b" height="1203.14" width="253.14" x="1016" y="0" /><rect fill="#ceecb2" height="1203.14" width="153.14" x="1266" y="0" /></svg>