<?xml version="1.0" encoding="utf-8" ?>
<svg baseProfile="full" height="1250" version="1.1" width="1016" xmlns="http://www.w3.org/2000/svg" xmlns:ev="http://www.w3.org/2001/xml-events" xmlns:xlink="http://www.w3.org/1999/xlink"><defs /><rect fill="green" height="1250" width="150" x="0" y="0" /><rect fill="#909092" height="50.0" width="16" x="150" y="0" /><rect fill="#a5a5a7" height="5" width="16" x="150" y="50.0" /><rect fill="#909092" height="100" width="16" x="150" y="55.0" /><rect fill="#a5a5a7" height="5" width="16" x="150" y="155.0" /><rect fill="#909092" height="100" width="16" x="150" y="160.0" /><rect fill="#a5a5a7" height="5" width="16" x="150" y="260.0" /><rect fill="#909092" height="100" width="16" x="150" y="265.0" /><rect fill="#a5a5a7" height="5" width="16" x="150" y="365.0" /><rect fill="#909092" height="100" width="16" x="150" y="370.0" /><rect fill="#a5a5a7" height="5" width="16" x="150" y="470.0" /><rect fill="#909092" height="100" width="16" x="150" y="475.0" /><rect fill="#a5a5a7" height="5" width="16" x="150" y="575.0" /><rect fill="#909092" height="100" width="16" x="150" y="580.0" /><rect fill="#a5a5a7" height="5" width="16" x="150" y="680.0" /><rect fill="#909092" height="100" width="16" x="150" y="685.0" /><rect fill="#a5a5a7" height="5" width="16" x="150" y="785.0" /><rect fill="#909092" height="100" width="16" x="150" y="790.0" /><rect fill="#a5a5a7" height="5" width="16" x="150" y="890.0" /><rect fill="#909092" height="100" width="16" x="150" y="895.0" /><rect fill="#a5a5a7" height="5" width="16" x="150" y="995.0" /><rect fill="#909092" height="100" width="16" x="150" y="1000.0" /><rect fill="#a5a5a7" height="5" width="16" x="150" y="1100.0" /><rect fill="#909092" height="100" width="16" x="150" y="1105.0" /><rect fill="#a5a5a7" height="5" width="16" x="150" y="1205.0" /><rect fill="#909092" height="100" width="16" x="150" y="1210.0" /><rect fill="gray" height="1250" width="24" x="166" y="0" /><rect fill="#dce0df" height="1250" width="12" x="190" y="0" /><rect fill="#68676e" height="1250" width="300" x="202" y="0" /><rect fill="#dce0df" height="100.0" width="12" x="502" y="0" /><rect fill="#68676e" height="400" width="12" x="502" y="100.0" /><rect fill="#dce0df" height="200" width="12" x="502" y="500.0" /><rect fill="#68676e" height="400" width="12" x="502" y="700.0" /><rect fill="#dce0df" height="200" width="12" x="502" y="1100.0" /><rect fill="#68676e" height="1250" width="300" x="514" y="0" /><rect fill="#dce0df" height="1250" width="12" x="814" y="0" /><rect fill="gray" height="1250" width="24" x="826" y="0" /><rect fill="#909092" height="50.0" width="16" x="850" y="0" /><rect fill="#a5a5a7" height="5" width="16" x="850" y="50.0" /><rect fill="#909092" height="100" width="16" x="850" y="55.0" /><rect fill="#a5a5a7" height="5" width="16" x="850" y="155.0" /><rect fill="#909092" height="100" width="16" x="850" y="160.0" /><rect fill="#a5a5a7" height="5" width="16" x="850" y="260.0" /><rect fill="#909092" height="100" width="16" x="850" y="265.0" /><rect fill="#a5a5a7" height="5" width="16" x="850" y="365.0" /><rect fill="#909092" height="100" width="16" x="850" y="370.0" /><rect fill="#a5a5a7" height="5" width="16" x="850" y="470.0" /><rect fill="#909092" height="100" width="16" x="850" y="475.0" /><rect fill="#a5a5a7" height="5" width="16" x="850" y="575.0" /><rect fill="#909092" height="100" width="16" x="850" y="580.0" /><rect fill="#a5a5a7" height="5" width="16" x="850" y="680.0" /><rect fill="#909092" height="100" width="16" x="850" y="685.0" /><rect fill="#a5a5a7" height="5" width="16" x="850" y="785.0" /><rect fill="#909092" height="100" width="16" x="850" y="790.0" /><rect fill="#a5a5a7" height="5" width="16" x="850" y="890.0" /><rect fill="#909092" height="100" width="16" x="850" y="895.0" /><rect fill="#a5a5a7" height="5" width="16" x="850" y="995.0" /><rect fill="#909092" height="100" width="16" x="850" y="1000.0" /><rect fill="#a5a5a7" height="5" width="16" x="850" y="1100.0" /><rect fill="#909092" height="100" width="16" x="850" y="1105.0" /><rect fill="#a5a5a7" height="5" width="16" x="850" y="1205.0" /><rect fill="#909092" height="100" width="16" x="850" y="1210.0" /><rect fill="green" height="1250" width="150" x="866" y="0" /></svg>